
<svg height="88" width="88" xmlns="http://www.w3.org/2000/svg" xmlns:xlink="http://www.w3.org/1999/xlink"><defs><ellipse id="a" cx="44" cy="44" rx="44" ry="44"/><mask id="b" fill="#fff" height="88" width="88" x="0" y="0"><use xlink:href="#a"/></mask></defs><g fill="none" fill-rule="evenodd"><use fill="#f46f6e" mask="url(#b)" stroke="#2e3d49" stroke-width="8" xlink:href="#a"/><path d="m26.721 28.512a5 5 0 1 0 8.445.888l1.982.208a1.99 1.99 0 0 0 2.189-1.781 2 2 0 0 0 -1.771-2.197l-15.93-1.675a1.99 1.99 0 0 0 -2.19 1.781 2 2 0 0 0 1.771 2.197zm26.024.9a5 5 0 1 0 8.46-.89l5.61-.589a2 2 0 0 0 1.772-2.197 1.99 1.99 0 0 0 -2.19-1.78l-15.93 1.674a2 2 0 0 0 -1.77 2.197 1.99 1.99 0 0 0 2.188 1.78z" fill="#2e3d49"/><path d="m1.833 56.835c5.553 17.941 22.275 30.975 42.04 30.975 19.766 0 36.487-13.033 42.04-30.974-4.046-.224-15.29 18.141-42.04 18.141s-37.993-18.366-42.04-18.141z" fill="#000" opacity=".08"/><ellipse cx="43.667" cy="56.333" fill="#000" opacity=".16" rx="7" ry="5"/><path d="m29.333 51.333s3.71-7.333 14.667-7.333 14.667 7.333 14.667 7.333" stroke="#2e3d49" stroke-linecap="round" stroke-linejoin="round" stroke-width="4"/></g></svg>