
<svg height="88" width="88" xmlns="http://www.w3.org/2000/svg" xmlns:xlink="http://www.w3.org/1999/xlink"><defs><ellipse id="a" cx="44" cy="44" rx="44" ry="44"/><mask id="b" fill="#fff" height="88" width="88" x="0" y="0"><use xlink:href="#a"/></mask></defs><g fill="none" fill-rule="evenodd"><use fill="#ffe778" mask="url(#b)" stroke="#2e3d49" stroke-width="8" xlink:href="#a"/><path d="m1.833 56.835c5.553 17.941 22.275 30.975 42.04 30.975 19.766 0 36.487-13.033 42.04-30.974-4.046-.224-15.29 18.141-42.04 18.141s-37.993-18.366-42.04-18.141z" fill="#000" opacity=".08"/><g stroke="#2e3d49" stroke-linecap="round" stroke-linejoin="round" stroke-width="4"><path d="m24 30a6 6 0 1 1 12 0m16 0a6 6 0 1 1 12 0"/><path d="m43.951 62c9.323 0 17.133-8 18.034-17.911.195-2.145-1.615-2.089-1.615-2.089h-32.543c-.659 0-1.982.002-1.812 2.089.804 9.911 8.613 17.911 17.935 17.911z" fill="#fafbfc"/></g></g></svg>