
<svg width="88" height="88" xmlns="http://www.w3.org/2000/svg" xmlns:xlink="http://www.w3.org/1999/xlink"><defs><ellipse id="a" cx="44" cy="44" rx="44" ry="44"/><mask id="b" x="0" y="0" width="88" height="88" fill="#fff"><use xlink:href="#a"/></mask></defs><g fill="none" fill-rule="evenodd"><use stroke="#2E3D49" mask="url(#b)" stroke-width="8" fill="#EAEAE0" xlink:href="#a"/><path d="M1.833 56.835C7.386 74.776 24.108 87.81 43.873 87.81c19.766 0 36.487-13.033 42.04-30.974-4.046-.224-15.29 18.141-42.04 18.141S5.88 56.611 1.833 56.836z" fill="#000" opacity=".08"/><rect fill="#000" opacity=".16" x="40.333" y="55" width="8" height="4" rx="2"/><rect fill="#2E3D49" x="29" y="49" width="30" height="4" rx="2"/><path d="M34.017 21.079a7.333 7.333 0 0 0-10.105 2.333" stroke="#2E3D49" stroke-width="4" stroke-linecap="round" stroke-linejoin="round"/><ellipse fill="#2E3D49" cx="31" cy="30" rx="5" ry="5"/><ellipse fill="#2E3D49" cx="57" cy="30" rx="5" ry="5"/><path d="M54.579 21.079a7.333 7.333 0 0 1 10.105 2.333" stroke="#2E3D49" stroke-width="4" stroke-linecap="round" stroke-linejoin="round"/></g></svg>